<?xml version="1.0" encoding="iso-8859-1"?>
<!-- Generator: Adobe Illustrator 16.0.0, SVG Export Plug-In . SVG Version: 6.00 Build 0)  -->
<!DOCTYPE svg PUBLIC "-//W3C//DTD SVG 1.1//EN" "http://www.w3.org/Graphics/SVG/1.1/DTD/svg11.dtd">
<svg version="1.1" id="Capa_1" xmlns="http://www.w3.org/2000/svg" xmlns:xlink="http://www.w3.org/1999/xlink" x="0px" y="0px"
	 width="580.747px" height="580.747px" viewBox="0 0 580.747 580.747" style="enable-background:new 0 0 580.747 580.747;"
	 xml:space="preserve">
<g>
	<path d="M549.741,257.4l-76.468-26.417l-44.292-75.21c-14.833-23.376-24.929-31.003-69.393-31.003H31.006
		C13.886,124.77,0,138.656,0,155.772v164.873h39.375c8.156,0,14.763,6.613,14.763,14.761s-6.613,14.76-14.763,14.76H0.006v16.246
		c0,17.122,13.886,31.006,31.006,31.006h16.45c2.046-34.038,30.217-61.038,64.767-61.038c34.556,0,62.728,27,64.771,61.038h222.82
		c1.236-20.101,11.709-39.349,30.014-50.942c30.299-19.205,70.439-10.211,89.645,20.101c6.089,9.615,9.316,20.222,9.949,30.842
		h20.32c17.122,0,30.999-13.884,30.999-31.006v-78.009C580.735,271.281,568.044,263.422,549.741,257.4z M120.851,226.663
		c0,2-1.629,3.635-3.629,3.635H43.97c-2,0-3.629-1.635-3.629-3.635V171.51c0-2,1.629-3.629,3.629-3.629h73.247
		c2,0,3.629,1.629,3.629,3.629v55.153H120.851z M219.52,226.663c0,2-1.629,3.635-3.629,3.635h-73.246
		c-2.003,0-3.629-1.635-3.629-3.635V171.51c0-2,1.626-3.629,3.629-3.629h73.246c2,0,3.629,1.629,3.629,3.629V226.663z
		 M433.383,239.437H292.066c-2.113,0-3.814-1.708-3.814-3.812v-75.033c0-2.107,1.702-3.809,3.814-3.809h101.196
		c2.106,0,5.224,0.779,6.759,3.809l37.156,75.033C437.189,237.729,435.478,239.437,433.383,239.437z M575.285,335.247
		c0,5.725-4.634,10.364-10.357,10.364h-31.956c-5.729,0-10.363-4.64-10.363-10.364v-23.309c0-5.724,4.634-10.376,10.363-10.376
		h31.956c5.724,0,10.357,4.652,10.357,10.376V335.247z M111.73,342.298c-30.397,0-55.128,24.722-55.128,55.119
		s24.731,55.119,55.128,55.119c30.385,0,55.113-24.722,55.113-55.119C166.836,367.02,142.115,342.298,111.73,342.298z
		 M135.855,368.883c-1.809,0.883-3.781,1.9-5.967,3.154c-5.325,3.069-11.35,7.429-17.235,12.508
		c-6.521-5.858-13.363-10.906-19.318-14.347c-1.577-0.913-3.017-1.656-4.409-2.362c6.324-4.877,14.218-7.818,22.798-7.818
		C120.921,360.018,129.331,363.367,135.855,368.883z M83.634,372.811c0.734,1.443,1.525,2.966,2.476,4.609
		c3.416,5.932,8.415,12.702,14.215,19.193c-5.718,6.399-10.644,13.098-14.005,18.949c-1.258,2.192-2.262,4.152-3.142,5.968
		c-5.517-6.516-8.86-14.931-8.86-24.113C74.324,387.992,77.853,379.387,83.634,372.811z M87.611,425.963
		c1.808-0.877,3.772-1.888,5.967-3.143c5.891-3.385,12.638-8.354,19.086-14.139c5.794,4.975,11.722,9.28,16.974,12.301
		c2.855,1.644,5.312,2.844,7.462,3.83c-6.677,6.18-15.576,10.004-25.37,10.004C102.538,434.817,94.126,431.48,87.611,425.963z
		 M140.668,421.068c-0.974-2.144-2.177-4.549-3.772-7.344c-3.032-5.292-7.377-11.265-12.397-17.099
		c5.112-5.918,9.521-11.995,12.602-17.366c1.267-2.192,2.284-4.165,3.16-5.967c5.52,6.527,8.863,14.937,8.863,24.125
		C149.123,406.38,145.948,414.614,140.668,421.068z M464.091,345.733c-30.397,0-55.119,24.734-55.119,55.119
		c0,30.396,24.722,55.125,55.119,55.125c30.391,0,55.119-24.729,55.119-55.125C519.21,370.467,494.482,345.733,464.091,345.733z
		 M488.222,372.331c-1.814,0.877-3.781,1.887-5.974,3.147c-5.321,3.069-11.351,7.435-17.232,12.501
		c-6.527-5.857-13.359-10.899-19.314-14.34c-1.583-0.907-3.015-1.662-4.409-2.362c6.321-4.884,14.213-7.818,22.792-7.818
		C473.286,363.458,481.707,366.801,488.222,372.331z M435.996,376.246c0.736,1.442,1.528,2.966,2.484,4.609
		c3.41,5.919,8.415,12.702,14.212,19.192c-5.724,6.406-10.644,13.092-14.005,18.95c-1.254,2.192-2.266,4.152-3.143,5.968
		c-5.522-6.516-8.859-14.932-8.859-24.113C426.691,391.426,430.229,382.828,435.996,376.246z M439.99,429.398
		c1.803-0.877,3.764-1.876,5.968-3.143c5.888-3.386,12.629-8.354,19.083-14.139c5.791,4.981,11.716,9.28,16.971,12.3
		c2.85,1.645,5.304,2.85,7.459,3.83c-6.668,6.187-15.576,10.005-25.373,10.005C454.915,438.251,446.505,434.92,439.99,429.398z
		 M493.039,424.508c-0.968-2.138-2.168-4.549-3.775-7.35c-3.032-5.292-7.367-11.266-12.397-17.099
		c5.121-5.906,9.53-11.995,12.61-17.354c1.261-2.191,2.271-4.164,3.154-5.973c5.523,6.527,8.866,14.937,8.866,24.119
		C501.491,409.815,498.318,418.053,493.039,424.508z"/>
</g>
<g>
</g>
<g>
</g>
<g>
</g>
<g>
</g>
<g>
</g>
<g>
</g>
<g>
</g>
<g>
</g>
<g>
</g>
<g>
</g>
<g>
</g>
<g>
</g>
<g>
</g>
<g>
</g>
<g>
</g>
</svg>
