<?xml version="1.0" encoding="iso-8859-1"?>
<!-- Generator: Adobe Illustrator 16.0.0, SVG Export Plug-In . SVG Version: 6.00 Build 0)  -->
<!DOCTYPE svg PUBLIC "-//W3C//DTD SVG 1.1//EN" "http://www.w3.org/Graphics/SVG/1.1/DTD/svg11.dtd">
<svg version="1.1" id="Capa_1" xmlns="http://www.w3.org/2000/svg" xmlns:xlink="http://www.w3.org/1999/xlink" x="0px" y="0px"
	 width="525.664px" height="525.664px" viewBox="0 0 525.664 525.664" style="enable-background:new 0 0 525.664 525.664;"
	 xml:space="preserve">
<g>
	<path d="M21.847,304.616h335.841V167.589h0.345l-0.345-1.485v-2.358h-0.542l-3.578-15.431l45.482-12.687l0.197-4.78l-55.798,5.731
		l-4.086,0.422l-1.554,6.725l-4.646,20.009H50.195L3.817,304.605v15.278C1.457,323.023,0,326.865,0,331.101v1.67
		c0,8.541,5.722,15.741,13.538,17.991c6.347-16.465,22.323-28.197,41-28.197c18.962,0,35.138,12.076,41.28,28.948h4.044
		c6.142-16.872,22.32-28.948,41.282-28.948c18.959,0,35.148,12.076,41.292,28.948h181.059v-39.137H21.847V304.616z M311.86,200.616
		v90.977h-27.119L311.86,200.616z M237.755,176.432h27.579l-34.319,115.161h-27.58L237.755,176.432z M162.144,176.432h27.58
		l-34.32,115.161h-27.58L162.144,176.432z M87.248,176.432h27.582L80.51,291.593H52.929L87.248,176.432z M53.081,329.447
		c-18.016,0-32.684,14.666-32.684,32.685c0,18.025,14.668,32.685,32.684,32.685c18.025,0,32.684-14.659,32.684-32.685
		C85.772,344.113,71.106,329.447,53.081,329.447z M53.081,384.819c-12.513,0-22.689-10.172-22.689-22.688
		c0-12.504,10.176-22.692,22.689-22.692c12.518,0,22.692,10.179,22.692,22.692C75.773,374.647,65.599,384.819,53.081,384.819z
		 M139.687,329.447c-18.022,0-32.684,14.666-32.684,32.685c0,18.025,14.657,32.685,32.684,32.685
		c18.025,0,32.684-14.659,32.684-32.685C172.371,344.113,157.712,329.447,139.687,329.447z M139.687,384.819
		c-12.509,0-22.694-10.172-22.694-22.688c0-12.504,10.181-22.692,22.694-22.692c12.511,0,22.692,10.179,22.692,22.692
		C162.379,374.647,152.198,384.819,139.687,384.819z M445.311,329.447c-18.022,0-32.688,14.666-32.688,32.685
		c0,18.025,14.665,32.685,32.688,32.685c18.014,0,32.681-14.659,32.681-32.685C477.992,344.113,463.325,329.447,445.311,329.447z
		 M445.311,384.819c-12.521,0-22.692-10.172-22.692-22.688c0-12.504,10.172-22.692,22.692-22.692
		c12.509,0,22.688,10.179,22.688,22.692C468,374.647,457.82,384.819,445.311,384.819z M525.664,275.845V255.36l-20.445-89.995
		c0-6.241-9.045-6.241-12.487-6.241H384.725c-3.445,0-6.247,0.66-6.247,6.241v163.897c0,16.331,2.802,19.124,6.247,19.124h22.03
		c6.919-15.204,22.238-25.811,40.013-25.811c17.763,0,33.082,10.61,40.001,25.811h32.656c3.446,0,6.238-2.793,6.238-6.243v-31.508
		h-5.868v-34.79H525.664z M426.598,255.238h-23.616v-4.792h23.616V255.238z M398.257,242.78v-67h90.184l10.305,67H398.257z
		 M503.041,333.826h-16.742c-4.729-9.017-15.026-15.464-15.026-15.464h31.769V333.826z"/>
</g>
<g>
</g>
<g>
</g>
<g>
</g>
<g>
</g>
<g>
</g>
<g>
</g>
<g>
</g>
<g>
</g>
<g>
</g>
<g>
</g>
<g>
</g>
<g>
</g>
<g>
</g>
<g>
</g>
<g>
</g>
</svg>
